<!DOCTYPE svg PUBLIC "-//W3C//DTD SVG 1.1//EN" "http://www.w3.org/Graphics/SVG/1.1/DTD/svg11.dtd">

<!-- Uploaded to: SVG Repo, www.svgrepo.com, Transformed by: SVG Repo Mixer Tools -->
<svg height="1.5rem" width="1.5rem" version="1.1" id="Layer_1" xmlns="http://www.w3.org/2000/svg" xmlns:xlink="http://www.w3.org/1999/xlink" viewBox="0 0 512 512" xml:space="preserve" fill="#000000" stroke="#000000">

<g id="SVGRepo_bgCarrier" stroke-width="0"/>

<g id="SVGRepo_tracerCarrier" stroke-linecap="round" stroke-linejoin="round"/>

<g id="SVGRepo_iconCarrier"> <g transform="translate(1)"> <path style="fill:##000000;" d="M417.133,503.467H92.867c-46.933,0-85.333-38.4-85.333-85.333V93.867 c0-46.933,38.4-85.333,85.333-85.333h324.267c46.933,0,85.333,38.4,85.333,85.333v324.267 C502.467,465.067,464.067,503.467,417.133,503.467"/> <path style="fill:##000000231317;" d="M417.133,512H92.867C40.813,512-1,470.187-1,418.133V93.867C-1,41.813,40.813,0,92.867,0h324.267 C469.187,0,511,41.813,511,93.867v324.267C511,470.187,469.187,512,417.133,512z M92.867,17.067c-42.667,0-76.8,34.133-76.8,76.8 v324.267c0,42.667,34.133,76.8,76.8,76.8h324.267c42.667,0,76.8-34.133,76.8-76.8V93.867c0-42.667-34.133-76.8-76.8-76.8H92.867z"/> </g> </g>

</svg>